<?xml version="1.0" encoding="iso-8859-1"?>
<!-- Generator: Adobe Illustrator 20.1.0, SVG Export Plug-In . SVG Version: 6.00 Build 0)  -->
<svg version="1.1" id="Layer_1" xmlns="http://www.w3.org/2000/svg" xmlns:xlink="http://www.w3.org/1999/xlink" x="0px" y="0px"
	 viewBox="0 0 1901.948 814.823" style="enable-background:new 0 0 1901.948 814.823;" xml:space="preserve">
<g>
	<g>
		<g>
			<path style="fill:#144D80;" d="M219.135,86.826c0,0,248.155-11.654,239.97,263.457
				c-12.07,231.229-238.949,225.674-238.949,225.674H35.328V86.826H219.135z M103.024,146.597v370.338h124.14
				c0,0,152.384,4.206,160.49-170.866c5.497-208.295-161.176-199.472-161.176-199.472H103.024z"/>
			<polygon style="fill:#144D80;" points="466.764,232.973 589.834,560.844 528.299,728.068 595.47,728.068 789.938,232.973 
				721.358,232.973 623.654,488.506 538.163,232.973 			"/>
			<path style="fill:#144D80;" d="M808.727,232.973v342.996h62.944V325.98c0,0,23.486-45.094,93.946-45.094
				s88.309,47.912,88.309,83.612s0,211.472,0,211.472h63.883V370.134c0,0,3.758-144.349-132.464-144.349
				c-84.238,0-119.938,44.14-119.938,44.14l-7.829-36.952H808.727z"/>
		</g>
		<polygon style="fill:#2B89B9;" points="1449.438,146.302 1449.438,86.826 1150.832,86.826 1150.832,575.957 1454.605,575.717 
			1454.605,516.241 1218.769,516.241 1218.676,350.343 1391.901,350.164 1391.901,290.689 1218.642,290.689 1218.561,146.493 		"/>
		<path style="fill:#2B89B9;" d="M1718.124,86.826v182.786c0.235,0.698,0.465,1.396,0.695,2.094
			c-27.56-28.911-64.422-46.278-104.924-46.278c-85.363,0-154.564,77.139-154.564,176.93s69.201,180.688,154.564,180.688
			c39.936,0,76.334-17.707,103.764-46.77l7.041,39.681h56.367V86.826H1718.124z M1623.67,529.747
			c-56.166,0-101.696-47.073-101.696-124.916c0-82.796,45.531-124.916,101.696-124.916c56.165,0,101.696,55.927,101.696,124.916
			C1725.366,480.56,1679.835,529.747,1623.67,529.747z"/>
		<g>
			<path style="fill:#2B89B9;" d="M1840.611,87.127c14.393,0,26.009,12.336,26.009,27.621c0,15.285-11.616,27.621-26.009,27.621
				c-14.392,0-26.009-12.337-26.009-27.621C1814.602,99.463,1826.218,87.127,1840.611,87.127z M1840.611,137.404
				c11.909,0,21.041-9.698,21.041-22.656s-9.132-22.656-21.041-22.656c-11.908,0-21.041,9.698-21.041,22.656
				S1828.702,137.404,1840.611,137.404z"/>
			<g>
				<path style="fill:#2B89B9;" d="M1834.195,126.932h-3.396v-25.489h10.396c5.246,0,8.68,3.003,8.68,7.595
					c0,3.551-2.057,6.306-5.472,7.313l6.302,10.581h-3.981l-5.831-10.086h-6.698V126.932z M1834.195,114.02h6.698
					c3.491,0,5.472-1.749,5.472-4.875c0-3.056-2.113-4.875-5.623-4.875h-6.547V114.02z"/>
			</g>
		</g>
	</g>
	<g>
		<path style="fill:#144D80;" d="M806.775,616.23h23.369v91.731h55.844v20.106h-79.213V616.23z"/>
		<path style="fill:#144D80;" d="M1140.559,728.068h-23.218V616.23h23.218V728.068z"/>
		<path style="fill:#144D80;" d="M1445.397,616.23h24.279l-38.129,111.838h-22.078l-37.821-111.838h24.962l24.28,84.902
			L1445.397,616.23z"/>
		<path style="fill:#144D80;" d="M1783.847,636.033h-59.182v23.749h54.325v19.424h-54.325v28.756h61.913v20.106h-84.751V616.23
			h82.02V636.033z"/>
	</g>
</g>
</svg>
