<?xml version="1.0" encoding="UTF-8"?>
<svg width="234px" height="70px" viewBox="0 0 234 70" version="1.1" xmlns="http://www.w3.org/2000/svg" xmlns:xlink="http://www.w3.org/1999/xlink">
    <!-- Generator: Sketch 49.3 (51167) - http://www.bohemiancoding.com/sketch -->
    <title>logo_newneo</title>
    <desc>Created with Sketch.</desc>
    <defs></defs>
    <g id="Neo-Study-App-Sympli" stroke="none" stroke-width="1" fill="none" fill-rule="evenodd">
        <g id="new-neo-logo" transform="translate(-43.000000, -119.000000)" fill="#49C5FE" fill-rule="nonzero">
            <g id="logo_newneo" transform="translate(43.000000, 119.000000)">
                <path d="M225.413128,67.6022907 L225.413128,63.7521145 L223.939031,63.7521145 L223.939031,62.9789868 L227.814978,62.9789868 L227.814978,63.7521145 L226.346035,63.7521145 L226.346035,67.6022907 L225.413128,67.6022907 Z M228.588106,67.6022907 L228.588106,62.9635242 L230.057048,62.9635242 L230.907489,66.1230396 L231.75793,62.9635242 L233.232026,62.9635242 L233.232026,67.6022907 L232.304273,67.6022907 L232.304273,63.9943612 L231.371366,67.6022907 L230.443612,67.6022907 L229.515859,63.9943612 L229.515859,67.6022907 L228.588106,67.6022907 Z" id="Shape"></path>
                <path d="M198.513436,0.541189427 C188.679251,0.541189427 180.257313,3.63370044 172.87652,10.0300441 C166.619339,15.5140969 161.84141,22.704185 157.156256,29.6726432 C147.017974,44.7898678 137.477577,59.0205727 113.907489,59.0205727 C102.512769,59.0864943 92.5771345,51.2870962 89.9353744,40.2026432 L141.683392,40.2026432 C143.687626,40.2076986 145.606246,39.3906137 146.991445,37.9420965 C148.376645,36.4935794 149.107216,34.5403778 149.012643,32.53837 C149.012643,32.4971366 149.012643,32.4662115 149.012643,32.4404405 C148.940485,31.5126872 148.832247,30.5900881 148.68793,29.6777974 C146.717447,17.7045339 138.621382,7.63725308 127.349604,3.14405286 C114.205281,-2.19823864 99.1456092,0.738458049 88.9715419,10.6279295 C82.7484666,16.6968465 79.0809094,24.9151988 78.7198678,33.6001322 C77.8900441,32.3837445 77.0653744,31.1570485 76.2355507,29.9200441 C71.5400881,22.9515859 66.772467,15.7614978 60.5101322,10.2774449 C53.1293392,3.89656388 44.7074009,0.788590308 34.8680617,0.788590308 C18.1375771,0.788590308 4.41713656,11.7876211 0.901982379,27.3532599 C0.855594714,27.5388106 0.798898678,27.719207 0.757665198,27.9099119 C0.664889868,28.3480176 0.603039648,28.8634361 0.515418502,29.3170044 C0.396872247,30.002511 0.283480176,30.6880176 0.206167401,31.3786784 C0.180396476,31.7343172 0.164933921,32.0951101 0.139162996,32.4713656 C0.0824669604,33.234185 0.0206167401,34.0176211 0.0257709251,34.7598238 C0.0257709251,34.9350661 0.0257709251,35.1051542 0.0257709251,35.2752423 C6.49133525e-15,35.852511 0.0257709251,36.465859 0.0721585903,37.1101322 C0.310636595,41.0153097 1.21717178,44.8506509 2.7523348,48.4493392 C2.86572687,48.7431278 2.97911894,49.0472247 3.0976652,49.3255507 C4.09857333,51.5350289 5.33040559,53.6324264 6.77259912,55.5827313 L18.0911894,69.4681057 L31.3271366,69.4681057 L14.6842731,49.0936123 C13.0675945,46.8195073 11.8621636,44.2795545 11.1227313,41.5891189 C10.5903557,39.5414709 10.3065498,37.4371534 10.2774449,35.32163 C10.2774449,22.0599119 21.3074009,11.3082819 34.8680617,11.3082819 C42.0839207,11.3082819 48.0576211,13.5348899 53.4231278,18.2045815 C58.6443172,22.7248018 62.8913656,29.02837 67.3394273,35.7700441 C72.7049339,43.7744934 78.2199119,52.0005727 86.1934361,58.5206167 C88.1211013,60.0668722 94.0638767,64.8654185 102.346652,67.5662115 L102.387885,67.5662115 L103.027004,67.7672247 C106.544681,68.8913648 110.214563,69.466794 113.907489,69.4732599 C127.02489,69.4732599 137.905374,65.7674009 147.146828,58.27837 C155.140969,51.758326 160.655947,43.5322467 166.021454,35.5277974 C170.495286,28.7809692 174.742335,22.4825551 179.937753,17.9623348 C185.30326,13.2926432 191.27696,11.0660352 198.492819,11.0660352 C212.058634,11.0660352 223.08859,21.812511 223.08859,35.0793833 C223.08859,48.3462555 212.058634,59.0927313 198.492819,59.0927313 C186.638194,59.0927313 172.1137,50.645022 173.902203,29.1520705 L164.310264,43.233304 C166.371938,58.9484141 181.525242,69.4732599 198.513436,69.4732599 C217.96533,69.4732599 233.762907,54.0570925 233.762907,35.0072247 C233.762907,15.9573568 217.96533,0.541189427 198.513436,0.541189427 Z M113.778634,10.8237885 C125.334317,10.8237885 135.317974,18.6066079 137.853833,29.6520264 L89.7859031,29.6520264 C92.4236095,18.5548348 102.372525,10.7474474 113.778634,10.8237885 Z" id="Shape"></path>
            </g>
        </g>
    </g>
</svg>